<svg version="1.1" id="Layer_1" xmlns="http://www.w3.org/2000/svg" xmlns:xlink="http://www.w3.org/1999/xlink" x="0px" y="0px"
	 width="100%" viewBox="0 0 512 512" enable-background="new 0 0 512 512" xml:space="preserve">
<path fill="#000000" opacity="1.000000" stroke="none" 
	d="
M513.000000,275.555847 
	C500.762817,275.384125 489.804840,270.653229 478.850616,265.691223 
	C469.872345,261.624268 461.029602,262.553650 452.581909,267.678284 
	C447.743195,270.613586 442.872467,273.514679 437.876678,276.168640 
	C427.536865,281.661621 417.621948,280.526337 408.376190,273.580292 
	C403.052856,269.581024 398.124512,265.039856 392.689606,261.209015 
	C384.028076,255.103867 378.127502,255.703690 370.551514,263.295471 
	C365.849701,268.007111 361.549683,273.117737 357.019592,278.003204 
	C344.010101,292.033356 334.084961,291.635956 322.867828,276.310852 
	C317.658447,269.193726 313.123840,261.586792 308.086151,254.338943 
	C299.849243,242.488174 294.944580,242.692459 287.567139,255.075882 
	C281.670746,264.973297 277.659058,275.802734 272.402618,286.018494 
	C269.884888,290.911621 267.368774,295.823792 263.397552,299.745178 
	C257.541290,305.527954 251.431168,305.251465 246.293243,298.817139 
	C240.471497,291.526428 237.650085,282.725159 234.435165,274.157196 
	C229.348389,260.600616 225.715286,246.507523 219.564194,233.349976 
	C217.992767,229.988617 216.981842,224.739685 212.887924,224.794968 
	C208.500748,224.854187 207.636368,230.218811 206.253860,233.787415 
	C199.074234,252.319702 195.363220,271.836884 190.341766,290.981567 
	C187.512436,301.768555 185.043045,312.670197 180.553406,322.932495 
	C178.498062,327.630554 176.621506,333.200348 170.280807,333.133423 
	C163.880707,333.065887 162.139114,327.287628 160.332153,322.608917 
	C154.428284,307.322205 151.804932,291.184509 148.662659,275.188049 
	C143.440018,248.601151 139.960495,221.666916 132.804535,195.465042 
	C131.800980,191.790482 130.676483,188.163147 128.365097,184.544724 
	C125.529556,186.526215 125.154617,189.434799 124.416260,192.003571 
	C119.391670,209.484314 116.971428,227.471268 114.408020,245.410370 
	C110.621521,271.908752 107.028015,298.435730 103.528168,324.973694 
	C101.265678,342.129272 98.974976,359.268616 94.405434,376.000671 
	C93.620026,378.876556 92.547005,381.693390 91.374458,384.438232 
	C90.344475,386.849274 88.526039,388.711395 85.753212,388.801178 
	C82.951073,388.891907 81.170212,387.033936 79.942238,384.714813 
	C76.294891,377.826538 75.073723,370.196014 73.814224,362.684448 
	C68.007294,328.052216 64.804939,293.106903 61.542866,258.166443 
	C58.744457,228.192322 55.832935,198.225098 52.541763,168.302063 
	C50.616177,150.794754 48.837624,133.231522 44.795029,116.024094 
	C44.423374,114.442139 43.896687,112.896599 43.088436,110.119247 
	C39.755283,121.125748 38.478821,131.275284 37.404705,141.397812 
	C34.912067,164.888489 32.643177,188.405289 30.553421,211.935455 
	C29.228374,226.855164 28.412779,241.819733 27.325146,256.761017 
	C25.392399,283.312073 23.396620,309.858551 21.486019,336.411194 
	C20.375349,351.846802 19.443697,367.295288 18.317511,382.729706 
	C16.198748,411.767487 13.770618,440.780487 9.982482,469.655060 
	C9.228315,475.403564 7.691649,481.058105 6.352747,486.717407 
	C5.728023,489.358002 4.527107,491.759186 1.324275,492.870422 
	C1.000000,488.310760 1.000000,483.621490 1.000000,478.466125 
	C3.702951,471.598267 3.708566,464.665833 4.517924,457.968506 
	C8.369817,426.094879 10.798423,394.087036 12.919147,362.052673 
	C15.095000,329.185547 17.409885,296.326721 19.865484,263.479340 
	C22.023281,234.615524 24.161112,205.744446 26.870790,176.929535 
	C28.923088,155.105240 30.550873,133.184860 35.634178,111.755310 
	C36.169170,109.499947 36.949978,107.287918 37.793873,105.124901 
	C38.679562,102.854744 40.115623,100.982491 42.811802,100.853363 
	C45.750107,100.712639 47.378197,102.657608 48.480968,105.010643 
	C51.051666,110.495872 52.092270,116.454727 53.066769,122.334084 
	C56.274929,141.689484 58.673168,161.150528 60.441807,180.702316 
	C62.268658,200.897690 64.677223,221.039719 66.702362,241.218033 
	C68.660957,260.733337 70.199234,280.293823 72.386032,299.782410 
	C75.184021,324.717957 77.214722,349.780914 83.208435,374.260101 
	C83.677544,376.175995 83.881775,378.161774 85.836166,379.851471 
	C89.653946,371.038025 91.049423,361.851715 92.590622,352.743896 
	C98.304626,318.976837 101.920891,284.913544 106.800514,251.029175 
	C109.855247,229.816925 112.409492,208.483261 118.732704,187.877167 
	C119.617531,184.993683 120.725212,182.205276 122.637329,179.834702 
	C126.011810,175.651154 130.251785,175.675812 133.425812,180.033646 
	C136.412598,184.134354 137.934769,188.942719 139.251923,193.762939 
	C145.485992,216.576843 148.826187,239.979248 153.259705,263.159943 
	C156.693283,281.112549 159.367966,299.241943 165.262650,316.636475 
	C166.409073,320.019409 167.290024,323.640533 170.457367,326.392609 
	C174.127609,322.644287 175.510452,318.005188 177.018723,313.505737 
	C183.108765,295.337769 186.720337,276.508514 191.646927,258.028442 
	C194.007172,249.174988 196.553848,240.389725 199.756363,231.803589 
	C200.337173,230.246429 200.969589,228.684143 201.790710,227.245514 
	C204.327362,222.801193 206.330246,217.451660 212.584808,217.367416 
	C218.757004,217.284256 221.454285,222.261215 223.840225,226.780502 
	C230.322983,239.059860 233.789322,252.522888 238.426559,265.524750 
	C241.615753,274.466644 244.527313,283.526886 249.439560,291.730499 
	C253.365295,298.286621 256.458801,298.464966 260.934082,292.235504 
	C265.328857,286.118195 268.313995,279.205261 271.431122,272.385132 
	C275.101410,264.354645 278.648468,256.254028 283.594299,248.892349 
	C284.979706,246.830215 286.498810,244.792206 288.273010,243.068924 
	C294.199524,237.312637 300.801880,237.307983 306.917511,242.897858 
	C313.411407,248.833466 317.491119,256.556519 322.315674,263.731903 
	C325.009064,267.737640 327.558777,271.891937 330.678772,275.547943 
	C336.977722,282.929077 341.705933,283.169800 348.831268,276.667175 
	C351.895599,273.870667 354.533020,270.608582 357.389709,267.581909 
	C360.931396,263.829498 364.302246,259.886841 368.096893,256.408203 
	C376.081573,249.088531 384.924500,248.397476 394.197083,254.043381 
	C398.771454,256.828644 402.743378,260.400146 406.817352,263.840668 
	C420.110229,275.066742 426.388794,275.577972 441.322235,266.492920 
	C446.308807,263.459259 451.238037,260.358887 456.723785,258.271271 
	C465.719421,254.847916 474.360565,256.386810 482.932098,259.943207 
	C490.438354,263.057617 497.529755,267.327362 505.858917,268.213013 
	C508.016296,268.442413 510.136566,268.892578 512.644165,268.139587 
	C513.000000,270.370575 513.000000,272.741119 513.000000,275.555847 
z"/>
</svg>